#define _width 28
#define _height 28
static char _bits[] = {
 0x00,0x00,0x00,0x00,0x00,0x00,0x00,0x00,0x00,0x00,0x00,0x00,0x00,0x00,0x00,
 0x00,0x00,0x00,0x00,0x00,0xe0,0x7f,0x00,0x00,0xe0,0x7f,0x00,0x00,0xe0,0x7f,
 0x00,0x00,0xe0,0x7f,0x00,0x00,0xe0,0x01,0x00,0x00,0xe0,0x01,0x00,0x00,0xe0,
 0x01,0x00,0x00,0xe0,0x01,0x78,0x00,0xe0,0x01,0x78,0x00,0xe0,0x01,0x78,0x00,
 0xe0,0x01,0x78,0x00,0x00,0x00,0x78,0x00,0x00,0x00,0x78,0x00,0x00,0x00,0x78,
 0x00,0x00,0xe0,0x7f,0x00,0x00,0xe0,0x7f,0x00,0x00,0xe0,0x7f,0x00,0x00,0xe0,
 0x7f,0x00,0x00,0x00,0x00,0x00,0x00,0x00,0x00,0x00,0x00,0x00,0x00,0x00,0x00,
 0x00,0x00,0x00,0x00,0x00,0x00,0x00 };
