#define close_width 28
#define close_height 28
static unsigned char close_bits[] = {
   0x00, 0x00, 0x00, 0x00, 0x00, 0x00, 0x00, 0x00, 0x00, 0x00, 0x00, 0x00,
   0x00, 0x00, 0x00, 0x00, 0x00, 0x00, 0x00, 0x00, 0x20, 0x00, 0x08, 0x00,
   0x60, 0x00, 0x18, 0x00, 0xe0, 0x00, 0x1e, 0x00, 0xe0, 0x01, 0x0e, 0x00,
   0x80, 0x83, 0x0f, 0x00, 0x80, 0x87, 0x03, 0x00, 0x00, 0xee, 0x03, 0x00,
   0x00, 0xfe, 0x00, 0x00, 0x00, 0xf8, 0x00, 0x00, 0x00, 0x7c, 0x00, 0x00,
   0x00, 0xfc, 0x00, 0x00, 0x00, 0xee, 0x01, 0x00, 0x80, 0x8f, 0x03, 0x00,
   0x80, 0x83, 0x07, 0x00, 0xe0, 0x03, 0x0e, 0x00, 0xe0, 0x00, 0x1e, 0x00,
   0xe0, 0x00, 0x18, 0x00, 0x20, 0x00, 0x08, 0x00, 0x00, 0x00, 0x00, 0x00,
   0x00, 0x00, 0x00, 0x00, 0x00, 0x00, 0x00, 0x00, 0x00, 0x00, 0x00, 0x00,
   0x00, 0x00, 0x00, 0x00 };
