#define minimize_width 28
#define minimize_height 28
static unsigned char minimize_bits[] = {
   0x00, 0x00, 0x00, 0x00, 0x00, 0x00, 0x00, 0x00, 0x00, 0x00, 0x00, 0x00,
   0x00, 0x00, 0x00, 0x00, 0x00, 0x00, 0x00, 0x00, 0x00, 0x00, 0x00, 0x00,
   0x00, 0x00, 0x00, 0x00, 0x00, 0x00, 0x00, 0x00, 0x00, 0x00, 0x00, 0x00,
   0x40, 0x00, 0x10, 0x00, 0xc0, 0x01, 0x70, 0x00, 0xc0, 0x01, 0x3c, 0x00,
   0x80, 0x07, 0x1c, 0x00, 0x00, 0x07, 0x1f, 0x00, 0x00, 0x1e, 0x07, 0x00,
   0x00, 0xdc, 0x07, 0x00, 0x00, 0xfc, 0x01, 0x00, 0x00, 0xf0, 0x01, 0x00,
   0x00, 0x70, 0x00, 0x00, 0x00, 0x40, 0x00, 0x00, 0x00, 0x00, 0x00, 0x00,
   0x00, 0x00, 0x00, 0x00, 0x00, 0x00, 0x00, 0x00, 0x00, 0x00, 0x00, 0x00,
   0x00, 0x00, 0x00, 0x00, 0x00, 0x00, 0x00, 0x00, 0x00, 0x00, 0x00, 0x00,
   0x00, 0x00, 0x00, 0x00 };
