#define maximize_width 28
#define maximize_height 28
static unsigned char maximize_bits[] = {
   0x00, 0x00, 0x00, 0x00, 0x00, 0x00, 0x00, 0x00, 0x00, 0x00, 0x00, 0x00,
   0x00, 0x00, 0x00, 0x00, 0x00, 0x55, 0x00, 0x00, 0xc0, 0x7f, 0x00, 0x00,
   0x80, 0xff, 0x00, 0x00, 0x80, 0x2b, 0x00, 0x00, 0xc0, 0x01, 0x00, 0x00,
   0x80, 0x03, 0x00, 0x00, 0xc0, 0x01, 0x00, 0x00, 0x80, 0x01, 0x00, 0x00,
   0xc0, 0x03, 0x00, 0x00, 0x80, 0x01, 0x20, 0x00, 0x80, 0x00, 0x60, 0x00,
   0x00, 0x00, 0xe0, 0x00, 0x00, 0x00, 0x70, 0x00, 0x00, 0x00, 0x60, 0x00,
   0x00, 0x00, 0xf0, 0x00, 0x00, 0x00, 0x60, 0x00, 0x00, 0x00, 0xf5, 0x00,
   0x00, 0xc0, 0x7f, 0x00, 0x00, 0x80, 0xff, 0x00, 0x00, 0x80, 0x2a, 0x00,
   0x00, 0x00, 0x00, 0x00, 0x00, 0x00, 0x00, 0x00, 0x00, 0x00, 0x00, 0x00,
   0x00, 0x00, 0x00, 0x00 };
